# xmcd CD database file
#
# Track frame offsets:
#	150
#	41166
#	60742
#	67696
#	80268
#	109957
#	118428
#	128860
#	145739
#	156071
#	175575
#	189159
#	195275
#	236197
#	243088
#
# Disc length: 3343 seconds
#
# Revision: 0
# Processed by: cddbd v1.5.2PL0 Copyright (c) Steve Scherf et al.
# Submitted via: CDex 1.51
#
DISCID=c50d0d0f
DTITLE=Lan Xang - Hidden Gardens
DYEAR=2000
DGENRE=Jazz
TTITLE0=The Restless Many
TTITLE1=Trinity Place
TTITLE2=Xang Six
TTITLE3=Segues
TTITLE4=Mode Four
TTITLE5=Incurable Dreaminess
TTITLE6=Hidden Gardens
TTITLE7=Xang Seven
TTITLE8=Xang Eight
TTITLE9=Gradual Impulse
TTITLE10=Parting...From A View
TTITLE11=Xang Nine
TTITLE12=Free To Dream
TTITLE13=Xang Ten
TTITLE14=Xang Eleven
EXTD=YEAR: 2000
EXTT0=
EXTT1=
EXTT2=
EXTT3=
EXTT4=
EXTT5=
EXTT6=
EXTT7=
EXTT8=
EXTT9=
EXTT10=
EXTT11=
EXTT12=
EXTT13=
EXTT14=
PLAYORDER=
